<svg xmlns="http://www.w3.org/2000/svg" width="1460" height="900" viewBox="0 0 1460 900">
<rect width="100%" height="100%" fill="white"/>
<text x="80" y="32" font-size="22" font-family="Arial, sans-serif" font-weight="bold">Occasion Feature Coordinates (MVP initial hypothesis)</text>
<line x1="80" y1="740.0" x2="1010" y2="740.0" stroke="#e5e7eb" stroke-width="1"/>
<text x="45" y="744.0" font-size="12" font-family="Arial, sans-serif" fill="#374151">0.0</text>
<line x1="80" y1="604.0" x2="1010" y2="604.0" stroke="#e5e7eb" stroke-width="1"/>
<text x="45" y="608.0" font-size="12" font-family="Arial, sans-serif" fill="#374151">0.2</text>
<line x1="80" y1="468.0" x2="1010" y2="468.0" stroke="#e5e7eb" stroke-width="1"/>
<text x="45" y="472.0" font-size="12" font-family="Arial, sans-serif" fill="#374151">0.4</text>
<line x1="80" y1="332.0" x2="1010" y2="332.0" stroke="#e5e7eb" stroke-width="1"/>
<text x="45" y="336.0" font-size="12" font-family="Arial, sans-serif" fill="#374151">0.6</text>
<line x1="80" y1="196.0" x2="1010" y2="196.0" stroke="#e5e7eb" stroke-width="1"/>
<text x="45" y="200.0" font-size="12" font-family="Arial, sans-serif" fill="#374151">0.8</text>
<line x1="80" y1="60.0" x2="1010" y2="60.0" stroke="#e5e7eb" stroke-width="1"/>
<text x="45" y="64.0" font-size="12" font-family="Arial, sans-serif" fill="#374151">1.0</text>
<line x1="80" y1="60" x2="80" y2="740" stroke="#111827" stroke-width="1.5"/>
<line x1="80" y1="740" x2="1010" y2="740" stroke="#111827" stroke-width="1.5"/>
<line x1="80.0" y1="60" x2="80.0" y2="740" stroke="#f3f4f6" stroke-width="1"/>
<text x="80.0" y="764" font-size="12" text-anchor="end" transform="rotate(-30 80.0,764)" font-family="Arial, sans-serif" fill="#374151">formality</text>
<line x1="212.9" y1="60" x2="212.9" y2="740" stroke="#f3f4f6" stroke-width="1"/>
<text x="212.9" y="764" font-size="12" text-anchor="end" transform="rotate(-30 212.9,764)" font-family="Arial, sans-serif" fill="#374151">safety</text>
<line x1="345.7" y1="60" x2="345.7" y2="740" stroke="#f3f4f6" stroke-width="1"/>
<text x="345.7" y="764" font-size="12" text-anchor="end" transform="rotate(-30 345.7,764)" font-family="Arial, sans-serif" fill="#374151">brand_appropriateness</text>
<line x1="478.6" y1="60" x2="478.6" y2="740" stroke="#f3f4f6" stroke-width="1"/>
<text x="478.6" y="764" font-size="12" text-anchor="end" transform="rotate(-30 478.6,764)" font-family="Arial, sans-serif" fill="#374151">emotion</text>
<line x1="611.4" y1="60" x2="611.4" y2="740" stroke="#f3f4f6" stroke-width="1"/>
<text x="611.4" y="764" font-size="12" text-anchor="end" transform="rotate(-30 611.4,764)" font-family="Arial, sans-serif" fill="#374151">novelty</text>
<line x1="744.3" y1="60" x2="744.3" y2="740" stroke="#f3f4f6" stroke-width="1"/>
<text x="744.3" y="764" font-size="12" text-anchor="end" transform="rotate(-30 744.3,764)" font-family="Arial, sans-serif" fill="#374151">intimacy</text>
<line x1="877.1" y1="60" x2="877.1" y2="740" stroke="#f3f4f6" stroke-width="1"/>
<text x="877.1" y="764" font-size="12" text-anchor="end" transform="rotate(-30 877.1,764)" font-family="Arial, sans-serif" fill="#374151">symbolic_identity</text>
<line x1="1010.0" y1="60" x2="1010.0" y2="740" stroke="#f3f4f6" stroke-width="1"/>
<text x="1010.0" y="764" font-size="12" text-anchor="end" transform="rotate(-30 1010.0,764)" font-family="Arial, sans-serif" fill="#374151">story_richness</text>
<circle cx="80.0" cy="468.0" r="4.0" fill="#1f77b4" fill-opacity="0.88"/>
<circle cx="212.9" cy="366.0" r="4.0" fill="#1f77b4" fill-opacity="0.88"/>
<circle cx="345.7" cy="400.0" r="4.0" fill="#1f77b4" fill-opacity="0.88"/>
<circle cx="478.6" cy="230.0" r="4.0" fill="#1f77b4" fill-opacity="0.88"/>
<circle cx="611.4" cy="298.0" r="4.0" fill="#1f77b4" fill-opacity="0.88"/>
<circle cx="744.3" cy="298.0" r="4.0" fill="#1f77b4" fill-opacity="0.88"/>
<circle cx="877.1" cy="298.0" r="4.0" fill="#1f77b4" fill-opacity="0.88"/>
<circle cx="1010.0" cy="332.0" r="4.0" fill="#1f77b4" fill-opacity="0.88"/>
<circle cx="80.0" cy="434.0" r="4.0" fill="#d62728" fill-opacity="0.88"/>
<circle cx="212.9" cy="400.0" r="4.0" fill="#d62728" fill-opacity="0.88"/>
<circle cx="345.7" cy="332.0" r="4.0" fill="#d62728" fill-opacity="0.88"/>
<circle cx="478.6" cy="162.0" r="4.0" fill="#d62728" fill-opacity="0.88"/>
<circle cx="611.4" cy="264.0" r="4.0" fill="#d62728" fill-opacity="0.88"/>
<circle cx="744.3" cy="162.0" r="4.0" fill="#d62728" fill-opacity="0.88"/>
<circle cx="877.1" cy="196.0" r="4.0" fill="#d62728" fill-opacity="0.88"/>
<circle cx="1010.0" cy="162.0" r="4.0" fill="#d62728" fill-opacity="0.88"/>
<circle cx="80.0" cy="366.0" r="4.0" fill="#2ca02c" fill-opacity="0.88"/>
<circle cx="212.9" cy="230.0" r="4.0" fill="#2ca02c" fill-opacity="0.88"/>
<circle cx="345.7" cy="298.0" r="4.0" fill="#2ca02c" fill-opacity="0.88"/>
<circle cx="478.6" cy="264.0" r="4.0" fill="#2ca02c" fill-opacity="0.88"/>
<circle cx="611.4" cy="502.0" r="4.0" fill="#2ca02c" fill-opacity="0.88"/>
<circle cx="744.3" cy="434.0" r="4.0" fill="#2ca02c" fill-opacity="0.88"/>
<circle cx="877.1" cy="400.0" r="4.0" fill="#2ca02c" fill-opacity="0.88"/>
<circle cx="1010.0" cy="434.0" r="4.0" fill="#2ca02c" fill-opacity="0.88"/>
<circle cx="80.0" cy="230.0" r="4.0" fill="#9467bd" fill-opacity="0.88"/>
<circle cx="212.9" cy="128.0" r="4.0" fill="#9467bd" fill-opacity="0.88"/>
<circle cx="345.7" cy="230.0" r="4.0" fill="#9467bd" fill-opacity="0.88"/>
<circle cx="478.6" cy="366.0" r="4.0" fill="#9467bd" fill-opacity="0.88"/>
<circle cx="611.4" cy="604.0" r="4.0" fill="#9467bd" fill-opacity="0.88"/>
<circle cx="744.3" cy="570.0" r="4.0" fill="#9467bd" fill-opacity="0.88"/>
<circle cx="877.1" cy="502.0" r="4.0" fill="#9467bd" fill-opacity="0.88"/>
<circle cx="1010.0" cy="536.0" r="4.0" fill="#9467bd" fill-opacity="0.88"/>
<circle cx="80.0" cy="298.0" r="4.0" fill="#ff7f0e" fill-opacity="0.88"/>
<circle cx="212.9" cy="264.0" r="4.0" fill="#ff7f0e" fill-opacity="0.88"/>
<circle cx="345.7" cy="264.0" r="4.0" fill="#ff7f0e" fill-opacity="0.88"/>
<circle cx="478.6" cy="298.0" r="4.0" fill="#ff7f0e" fill-opacity="0.88"/>
<circle cx="611.4" cy="400.0" r="4.0" fill="#ff7f0e" fill-opacity="0.88"/>
<circle cx="744.3" cy="434.0" r="4.0" fill="#ff7f0e" fill-opacity="0.88"/>
<circle cx="877.1" cy="366.0" r="4.0" fill="#ff7f0e" fill-opacity="0.88"/>
<circle cx="1010.0" cy="400.0" r="4.0" fill="#ff7f0e" fill-opacity="0.88"/>
<circle cx="80.0" cy="162.0" r="4.0" fill="#8c564b" fill-opacity="0.88"/>
<circle cx="212.9" cy="162.0" r="4.0" fill="#8c564b" fill-opacity="0.88"/>
<circle cx="345.7" cy="196.0" r="4.0" fill="#8c564b" fill-opacity="0.88"/>
<circle cx="478.6" cy="230.0" r="4.0" fill="#8c564b" fill-opacity="0.88"/>
<circle cx="611.4" cy="434.0" r="4.0" fill="#8c564b" fill-opacity="0.88"/>
<circle cx="744.3" cy="468.0" r="4.0" fill="#8c564b" fill-opacity="0.88"/>
<circle cx="877.1" cy="298.0" r="4.0" fill="#8c564b" fill-opacity="0.88"/>
<circle cx="1010.0" cy="298.0" r="4.0" fill="#8c564b" fill-opacity="0.88"/>
<circle cx="80.0" cy="298.0" r="4.0" fill="#e377c2" fill-opacity="0.88"/>
<circle cx="212.9" cy="230.0" r="4.0" fill="#e377c2" fill-opacity="0.88"/>
<circle cx="345.7" cy="298.0" r="4.0" fill="#e377c2" fill-opacity="0.88"/>
<circle cx="478.6" cy="230.0" r="4.0" fill="#e377c2" fill-opacity="0.88"/>
<circle cx="611.4" cy="366.0" r="4.0" fill="#e377c2" fill-opacity="0.88"/>
<circle cx="744.3" cy="366.0" r="4.0" fill="#e377c2" fill-opacity="0.88"/>
<circle cx="877.1" cy="332.0" r="4.0" fill="#e377c2" fill-opacity="0.88"/>
<circle cx="1010.0" cy="366.0" r="4.0" fill="#e377c2" fill-opacity="0.88"/>
<circle cx="80.0" cy="298.0" r="4.0" fill="#7f7f7f" fill-opacity="0.88"/>
<circle cx="212.9" cy="230.0" r="4.0" fill="#7f7f7f" fill-opacity="0.88"/>
<circle cx="345.7" cy="264.0" r="4.0" fill="#7f7f7f" fill-opacity="0.88"/>
<circle cx="478.6" cy="366.0" r="4.0" fill="#7f7f7f" fill-opacity="0.88"/>
<circle cx="611.4" cy="502.0" r="4.0" fill="#7f7f7f" fill-opacity="0.88"/>
<circle cx="744.3" cy="502.0" r="4.0" fill="#7f7f7f" fill-opacity="0.88"/>
<circle cx="877.1" cy="434.0" r="4.0" fill="#7f7f7f" fill-opacity="0.88"/>
<circle cx="1010.0" cy="434.0" r="4.0" fill="#7f7f7f" fill-opacity="0.88"/>
<circle cx="80.0" cy="298.0" r="4.0" fill="#bcbd22" fill-opacity="0.88"/>
<circle cx="212.9" cy="196.0" r="4.0" fill="#bcbd22" fill-opacity="0.88"/>
<circle cx="345.7" cy="264.0" r="4.0" fill="#bcbd22" fill-opacity="0.88"/>
<circle cx="478.6" cy="298.0" r="4.0" fill="#bcbd22" fill-opacity="0.88"/>
<circle cx="611.4" cy="502.0" r="4.0" fill="#bcbd22" fill-opacity="0.88"/>
<circle cx="744.3" cy="468.0" r="4.0" fill="#bcbd22" fill-opacity="0.88"/>
<circle cx="877.1" cy="366.0" r="4.0" fill="#bcbd22" fill-opacity="0.88"/>
<circle cx="1010.0" cy="366.0" r="4.0" fill="#bcbd22" fill-opacity="0.88"/>
<circle cx="80.0" cy="298.0" r="4.0" fill="#17becf" fill-opacity="0.88"/>
<circle cx="212.9" cy="162.0" r="4.0" fill="#17becf" fill-opacity="0.88"/>
<circle cx="345.7" cy="298.0" r="4.0" fill="#17becf" fill-opacity="0.88"/>
<circle cx="478.6" cy="264.0" r="4.0" fill="#17becf" fill-opacity="0.88"/>
<circle cx="611.4" cy="604.0" r="4.0" fill="#17becf" fill-opacity="0.88"/>
<circle cx="744.3" cy="502.0" r="4.0" fill="#17becf" fill-opacity="0.88"/>
<circle cx="877.1" cy="434.0" r="4.0" fill="#17becf" fill-opacity="0.88"/>
<circle cx="1010.0" cy="468.0" r="4.0" fill="#17becf" fill-opacity="0.88"/>
<circle cx="80.0" cy="366.0" r="4.0" fill="#393b79" fill-opacity="0.88"/>
<circle cx="212.9" cy="264.0" r="4.0" fill="#393b79" fill-opacity="0.88"/>
<circle cx="345.7" cy="332.0" r="4.0" fill="#393b79" fill-opacity="0.88"/>
<circle cx="478.6" cy="366.0" r="4.0" fill="#393b79" fill-opacity="0.88"/>
<circle cx="611.4" cy="468.0" r="4.0" fill="#393b79" fill-opacity="0.88"/>
<circle cx="744.3" cy="502.0" r="4.0" fill="#393b79" fill-opacity="0.88"/>
<circle cx="877.1" cy="434.0" r="4.0" fill="#393b79" fill-opacity="0.88"/>
<circle cx="1010.0" cy="468.0" r="4.0" fill="#393b79" fill-opacity="0.88"/>
<circle cx="80.0" cy="366.0" r="4.0" fill="#637939" fill-opacity="0.88"/>
<circle cx="212.9" cy="230.0" r="4.0" fill="#637939" fill-opacity="0.88"/>
<circle cx="345.7" cy="332.0" r="4.0" fill="#637939" fill-opacity="0.88"/>
<circle cx="478.6" cy="434.0" r="4.0" fill="#637939" fill-opacity="0.88"/>
<circle cx="611.4" cy="502.0" r="4.0" fill="#637939" fill-opacity="0.88"/>
<circle cx="744.3" cy="570.0" r="4.0" fill="#637939" fill-opacity="0.88"/>
<circle cx="877.1" cy="468.0" r="4.0" fill="#637939" fill-opacity="0.88"/>
<circle cx="1010.0" cy="502.0" r="4.0" fill="#637939" fill-opacity="0.88"/>
<circle cx="80.0" cy="230.0" r="4.0" fill="#8c6d31" fill-opacity="0.88"/>
<circle cx="212.9" cy="162.0" r="4.0" fill="#8c6d31" fill-opacity="0.88"/>
<circle cx="345.7" cy="230.0" r="4.0" fill="#8c6d31" fill-opacity="0.88"/>
<circle cx="478.6" cy="434.0" r="4.0" fill="#8c6d31" fill-opacity="0.88"/>
<circle cx="611.4" cy="570.0" r="4.0" fill="#8c6d31" fill-opacity="0.88"/>
<circle cx="744.3" cy="570.0" r="4.0" fill="#8c6d31" fill-opacity="0.88"/>
<circle cx="877.1" cy="502.0" r="4.0" fill="#8c6d31" fill-opacity="0.88"/>
<circle cx="1010.0" cy="502.0" r="4.0" fill="#8c6d31" fill-opacity="0.88"/>
<circle cx="80.0" cy="570.0" r="4.0" fill="#843c39" fill-opacity="0.88"/>
<circle cx="212.9" cy="366.0" r="4.0" fill="#843c39" fill-opacity="0.88"/>
<circle cx="345.7" cy="502.0" r="4.0" fill="#843c39" fill-opacity="0.88"/>
<circle cx="478.6" cy="434.0" r="4.0" fill="#843c39" fill-opacity="0.88"/>
<circle cx="611.4" cy="434.0" r="4.0" fill="#843c39" fill-opacity="0.88"/>
<circle cx="744.3" cy="400.0" r="4.0" fill="#843c39" fill-opacity="0.88"/>
<circle cx="877.1" cy="434.0" r="4.0" fill="#843c39" fill-opacity="0.88"/>
<circle cx="1010.0" cy="502.0" r="4.0" fill="#843c39" fill-opacity="0.88"/>
<circle cx="80.0" cy="400.0" r="4.0" fill="#3182bd" fill-opacity="0.88"/>
<circle cx="212.9" cy="332.0" r="4.0" fill="#3182bd" fill-opacity="0.88"/>
<circle cx="345.7" cy="400.0" r="4.0" fill="#3182bd" fill-opacity="0.88"/>
<circle cx="478.6" cy="400.0" r="4.0" fill="#3182bd" fill-opacity="0.88"/>
<circle cx="611.4" cy="468.0" r="4.0" fill="#3182bd" fill-opacity="0.88"/>
<circle cx="744.3" cy="468.0" r="4.0" fill="#3182bd" fill-opacity="0.88"/>
<circle cx="877.1" cy="468.0" r="4.0" fill="#3182bd" fill-opacity="0.88"/>
<circle cx="1010.0" cy="468.0" r="4.0" fill="#3182bd" fill-opacity="0.88"/>
<text x="545.0" y="874" font-size="14" text-anchor="middle" font-family="Arial, sans-serif">feature</text>
<text x="20" y="400.0" font-size="14" text-anchor="middle" transform="rotate(-90 20,400.0)" font-family="Arial, sans-serif">score</text>
<text x="1040" y="80" font-size="14" font-family="Arial, sans-serif" font-weight="bold">occasion_code</text>
<circle cx="1048" cy="104" r="5" fill="#1f77b4"/>
<text x="1062" y="108" font-size="12" font-family="Arial, sans-serif">birthday</text>
<circle cx="1048" cy="128" r="5" fill="#d62728"/>
<text x="1062" y="132" font-size="12" font-family="Arial, sans-serif">anniversary</text>
<circle cx="1048" cy="152" r="5" fill="#2ca02c"/>
<text x="1062" y="156" font-size="12" font-family="Arial, sans-serif">thanks</text>
<circle cx="1048" cy="176" r="5" fill="#9467bd"/>
<text x="1062" y="180" font-size="12" font-family="Arial, sans-serif">apology</text>
<circle cx="1048" cy="200" r="5" fill="#ff7f0e"/>
<text x="1062" y="204" font-size="12" font-family="Arial, sans-serif">celebration_general</text>
<circle cx="1048" cy="224" r="5" fill="#8c564b"/>
<text x="1062" y="228" font-size="12" font-family="Arial, sans-serif">wedding_gift</text>
<circle cx="1048" cy="248" r="5" fill="#e377c2"/>
<text x="1062" y="252" font-size="12" font-family="Arial, sans-serif">baby_gift</text>
<circle cx="1048" cy="272" r="5" fill="#7f7f7f"/>
<text x="1062" y="276" font-size="12" font-family="Arial, sans-serif">housewarming</text>
<circle cx="1048" cy="296" r="5" fill="#bcbd22"/>
<text x="1062" y="300" font-size="12" font-family="Arial, sans-serif">farewell</text>
<circle cx="1048" cy="320" r="5" fill="#17becf"/>
<text x="1062" y="324" font-size="12" font-family="Arial, sans-serif">get_well</text>
<circle cx="1048" cy="344" r="5" fill="#393b79"/>
<text x="1062" y="348" font-size="12" font-family="Arial, sans-serif">seasonal_event</text>
<circle cx="1048" cy="368" r="5" fill="#637939"/>
<text x="1062" y="372" font-size="12" font-family="Arial, sans-serif">souvenir</text>
<circle cx="1048" cy="392" r="5" fill="#8c6d31"/>
<text x="1062" y="396" font-size="12" font-family="Arial, sans-serif">return_gift</text>
<circle cx="1048" cy="416" r="5" fill="#843c39"/>
<text x="1062" y="420" font-size="12" font-family="Arial, sans-serif">no_specific_occasion</text>
<circle cx="1048" cy="440" r="5" fill="#3182bd"/>
<text x="1062" y="444" font-size="12" font-family="Arial, sans-serif">other</text>
</svg>